<svg width="40" height="40" viewBox="0 0 40 40" fill="none" xmlns="http://www.w3.org/2000/svg">
<circle cx="20" cy="20" r="20" fill="#232323"/>
<path d="M20 11C20.2188 11 20.4375 11.0156 20.6562 11.0469C20.9062 11.0469 21.1406 11.0625 21.3594 11.0938C20.6719 11.5938 20.125 12.2344 19.7188 13.0156C19.3125 13.7656 19.1094 14.5938 19.1094 15.5C19.1094 16.5 19.3438 17.4062 19.8125 18.2188C20.3125 19.0312 20.9688 19.6875 21.7812 20.1875C22.5938 20.6562 23.5 20.8906 24.5 20.8906C25.4062 20.8906 26.2344 20.6875 26.9844 20.2812C27.7656 19.875 28.4062 19.3281 28.9062 18.6406C28.9375 18.8594 28.9531 19.0938 28.9531 19.3438C28.9844 19.5625 29 19.7812 29 20C29 21.25 28.7656 22.4219 28.2969 23.5156C27.8281 24.5781 27.1719 25.5312 26.3281 26.375C25.5156 27.1875 24.5625 27.8281 23.4688 28.2969C22.4062 28.7656 21.25 29 20 29C18.75 29 17.5781 28.7656 16.4844 28.2969C15.4219 27.8281 14.4688 27.1875 13.625 26.375C12.8125 25.5312 12.1719 24.5781 11.7031 23.5156C11.2344 22.4219 11 21.25 11 20C11 18.75 11.2344 17.5938 11.7031 16.5312C12.1719 15.4375 12.8125 14.4844 13.625 13.6719C14.4688 12.8281 15.4219 12.1719 16.4844 11.7031C17.5781 11.2344 18.75 11 20 11Z" fill="#9747FF"/>
</svg>
