<svg width="40" height="40" viewBox="0 0 40 40" fill="none" xmlns="http://www.w3.org/2000/svg">
<circle cx="20" cy="20" r="20" fill="white"/>
<path d="M20 14.9844C20.9062 14.9844 21.7344 15.2188 22.4844 15.6875C23.2656 16.125 23.875 16.7344 24.3125 17.5156C24.7812 18.2656 25.0156 19.0938 25.0156 20C25.0156 20.9062 24.7812 21.75 24.3125 22.5312C23.875 23.2812 23.2656 23.8906 22.4844 24.3594C21.7344 24.7969 20.9062 25.0156 20 25.0156C19.0938 25.0156 18.25 24.7969 17.4688 24.3594C16.7188 23.8906 16.1094 23.2812 15.6406 22.5312C15.2031 21.75 14.9844 20.9062 14.9844 20C14.9844 19.0938 15.2031 18.2656 15.6406 17.5156C16.1094 16.7344 16.7188 16.125 17.4688 15.6875C18.25 15.2188 19.0938 14.9844 20 14.9844ZM10.0156 20.9844C9.73438 20.9844 9.48438 20.8906 9.26562 20.7031C9.07812 20.5156 8.98438 20.2812 8.98438 20C8.98438 19.7188 9.07812 19.4844 9.26562 19.2969C9.48438 19.1094 9.73438 19.0156 10.0156 19.0156H11.9844C12.2656 19.0156 12.5 19.1094 12.6875 19.2969C12.9062 19.4844 13.0156 19.7188 13.0156 20C13.0156 20.2812 12.9062 20.5156 12.6875 20.7031C12.5 20.8906 12.2656 20.9844 11.9844 20.9844H10.0156ZM28.0156 20.9844C27.7344 20.9844 27.4844 20.8906 27.2656 20.7031C27.0781 20.5156 26.9844 20.2812 26.9844 20C26.9844 19.7188 27.0781 19.4844 27.2656 19.2969C27.4844 19.1094 27.7344 19.0156 28.0156 19.0156H29.9844C30.2656 19.0156 30.5 19.1094 30.6875 19.2969C30.9062 19.4844 31.0156 19.7188 31.0156 20C31.0156 20.2812 30.9062 20.5156 30.6875 20.7031C30.5 20.8906 30.2656 20.9844 29.9844 20.9844H28.0156ZM19.0156 10.0156C19.0156 9.73438 19.1094 9.5 19.2969 9.3125C19.4844 9.09375 19.7188 8.98438 20 8.98438C20.2812 8.98438 20.5156 9.09375 20.7031 9.3125C20.8906 9.5 20.9844 9.73438 20.9844 10.0156V11.9844C20.9844 12.2656 20.8906 12.5156 20.7031 12.7344C20.5156 12.9219 20.2812 13.0156 20 13.0156C19.7188 13.0156 19.4844 12.9219 19.2969 12.7344C19.1094 12.5156 19.0156 12.2656 19.0156 11.9844V10.0156ZM19.0156 28.0156C19.0156 27.7344 19.1094 27.5 19.2969 27.3125C19.4844 27.0938 19.7188 26.9844 20 26.9844C20.2812 26.9844 20.5156 27.0938 20.7031 27.3125C20.8906 27.5 20.9844 27.7344 20.9844 28.0156V29.9844C20.9844 30.2656 20.8906 30.5156 20.7031 30.7344C20.5156 30.9219 20.2812 31.0156 20 31.0156C19.7188 31.0156 19.4844 30.9219 19.2969 30.7344C19.1094 30.5156 19.0156 30.2656 19.0156 29.9844V28.0156ZM14 12.5938L15.0312 13.625C15.25 13.8125 15.3438 14.0469 15.3125 14.3281C15.3125 14.6094 15.2188 14.8438 15.0312 15.0312C14.8438 15.25 14.6094 15.3594 14.3281 15.3594C14.0781 15.3594 13.8438 15.25 13.625 15.0312L12.5938 14C12.375 13.8125 12.2656 13.5781 12.2656 13.2969C12.2656 13.0156 12.375 12.7812 12.5938 12.5938C12.7812 12.375 13.0156 12.2656 13.2969 12.2656C13.5781 12.2656 13.8125 12.375 14 12.5938ZM26.375 24.9688L27.4062 26C27.625 26.1875 27.7344 26.4219 27.7344 26.7031C27.7344 26.9844 27.625 27.2188 27.4062 27.4062C27.2188 27.625 26.9844 27.7344 26.7031 27.7344C26.4219 27.7344 26.1875 27.625 26 27.4062L24.9688 26.375C24.75 26.1875 24.6406 25.9531 24.6406 25.6719C24.6406 25.3906 24.75 25.1562 24.9688 24.9688C25.1562 24.75 25.375 24.6406 25.625 24.6406C25.9062 24.6406 26.1562 24.75 26.375 24.9688ZM27.4062 14L26.375 15.0312C26.1875 15.25 25.9531 15.3594 25.6719 15.3594C25.3906 15.3281 25.1562 15.2188 24.9688 15.0312C24.75 14.8438 24.6406 14.625 24.6406 14.375C24.6406 14.0938 24.75 13.8438 24.9688 13.625L26 12.5938C26.1875 12.375 26.4219 12.2656 26.7031 12.2656C26.9844 12.2656 27.2188 12.375 27.4062 12.5938C27.625 12.7812 27.7344 13.0156 27.7344 13.2969C27.7344 13.5781 27.625 13.8125 27.4062 14ZM15.0312 26.375L14 27.4062C13.8125 27.625 13.5781 27.7344 13.2969 27.7344C13.0156 27.7031 12.7812 27.5938 12.5938 27.4062C12.375 27.2188 12.2656 26.9844 12.2656 26.7031C12.2656 26.4219 12.375 26.1875 12.5938 26L13.625 24.9688C13.8125 24.75 14.0469 24.6406 14.3281 24.6406C14.6094 24.6406 14.8438 24.75 15.0312 24.9688C15.25 25.1562 15.3594 25.3906 15.3594 25.6719C15.3594 25.9219 15.25 26.1562 15.0312 26.375Z" fill="#9747FF"/>
</svg>
